<svg width="1400" height="820" viewBox="0 0 1400 820" fill="none" xmlns="http://www.w3.org/2000/svg">
  <rect width="1400" height="820" fill="#F5F9FF"/>
  <path d="M0 0H1400V820H0V0Z" fill="url(#grid)"/>
  <rect x="70" y="64" width="1260" height="692" rx="22" fill="white" stroke="#D9E6F5" stroke-width="2"/>
  <text x="112" y="132" fill="#0B1220" font-family="Inter, Segoe UI, Arial, sans-serif" font-size="44" font-weight="800">Roadmap Belajar Flutter</text>
  <text x="112" y="170" fill="#64748B" font-family="Inter, Segoe UI, Arial, sans-serif" font-size="22">Dari dasar, praktik, project, state management, storage, sampai Firebase.</text>

  <path d="M170 310C300 250 410 250 520 310C630 370 740 370 850 310C960 250 1070 250 1200 310" stroke="#02569B" stroke-width="8" stroke-linecap="round"/>
  <path d="M170 510C300 450 410 450 520 510C630 570 740 570 850 510C960 450 1070 450 1200 510" stroke="#73D5FF" stroke-width="8" stroke-linecap="round"/>

  <g>
    <circle cx="170" cy="310" r="34" fill="#02569B"/>
    <text x="170" y="319" text-anchor="middle" fill="white" font-family="Inter, Segoe UI, Arial, sans-serif" font-size="24" font-weight="800">1</text>
    <text x="104" y="392" fill="#0B1220" font-family="Inter, Segoe UI, Arial, sans-serif" font-size="24" font-weight="750">Fondasi</text>
    <text x="82" y="424" fill="#64748B" font-family="Inter, Segoe UI, Arial, sans-serif" font-size="18">Dart, widget, layout</text>
  </g>

  <g>
    <circle cx="345" cy="270" r="34" fill="#027DFD"/>
    <text x="345" y="279" text-anchor="middle" fill="white" font-family="Inter, Segoe UI, Arial, sans-serif" font-size="24" font-weight="800">2</text>
    <text x="282" y="196" fill="#0B1220" font-family="Inter, Segoe UI, Arial, sans-serif" font-size="24" font-weight="750">Praktik</text>
    <text x="246" y="228" fill="#64748B" font-family="Inter, Segoe UI, Arial, sans-serif" font-size="18">Latihan per bab</text>
  </g>

  <g>
    <circle cx="520" cy="310" r="34" fill="#02569B"/>
    <text x="520" y="319" text-anchor="middle" fill="white" font-family="Inter, Segoe UI, Arial, sans-serif" font-size="24" font-weight="800">3</text>
    <text x="448" y="392" fill="#0B1220" font-family="Inter, Segoe UI, Arial, sans-serif" font-size="24" font-weight="750">Project 1</text>
    <text x="410" y="424" fill="#64748B" font-family="Inter, Segoe UI, Arial, sans-serif" font-size="18">Catatan belajar</text>
  </g>

  <g>
    <circle cx="695" cy="350" r="34" fill="#027DFD"/>
    <text x="695" y="359" text-anchor="middle" fill="white" font-family="Inter, Segoe UI, Arial, sans-serif" font-size="24" font-weight="800">4</text>
    <text x="632" y="270" fill="#0B1220" font-family="Inter, Segoe UI, Arial, sans-serif" font-size="24" font-weight="750">CRUD</text>
    <text x="586" y="302" fill="#64748B" font-family="Inter, Segoe UI, Arial, sans-serif" font-size="18">Filter dan search</text>
  </g>

  <g>
    <circle cx="850" cy="310" r="34" fill="#02569B"/>
    <text x="850" y="319" text-anchor="middle" fill="white" font-family="Inter, Segoe UI, Arial, sans-serif" font-size="24" font-weight="800">5</text>
    <text x="740" y="392" fill="#0B1220" font-family="Inter, Segoe UI, Arial, sans-serif" font-size="24" font-weight="750">State Management</text>
    <text x="778" y="424" fill="#64748B" font-family="Inter, Segoe UI, Arial, sans-serif" font-size="18">Provider, Riverpod, Bloc</text>
  </g>

  <g>
    <circle cx="1025" cy="270" r="34" fill="#027DFD"/>
    <text x="1025" y="279" text-anchor="middle" fill="white" font-family="Inter, Segoe UI, Arial, sans-serif" font-size="24" font-weight="800">6</text>
    <text x="950" y="196" fill="#0B1220" font-family="Inter, Segoe UI, Arial, sans-serif" font-size="24" font-weight="750">Project 2</text>
    <text x="922" y="228" fill="#64748B" font-family="Inter, Segoe UI, Arial, sans-serif" font-size="18">Task Manager</text>
  </g>

  <g>
    <circle cx="1200" cy="310" r="34" fill="#02569B"/>
    <text x="1200" y="319" text-anchor="middle" fill="white" font-family="Inter, Segoe UI, Arial, sans-serif" font-size="24" font-weight="800">7</text>
    <text x="1144" y="392" fill="#0B1220" font-family="Inter, Segoe UI, Arial, sans-serif" font-size="24" font-weight="750">Storage</text>
    <text x="1110" y="424" fill="#64748B" font-family="Inter, Segoe UI, Arial, sans-serif" font-size="18">Data tidak hilang</text>
  </g>

  <g>
    <circle cx="345" cy="470" r="34" fill="#02569B"/>
    <text x="345" y="479" text-anchor="middle" fill="white" font-family="Inter, Segoe UI, Arial, sans-serif" font-size="24" font-weight="800">8</text>
    <text x="274" y="552" fill="#0B1220" font-family="Inter, Segoe UI, Arial, sans-serif" font-size="24" font-weight="750">Firebase</text>
    <text x="224" y="584" fill="#64748B" font-family="Inter, Segoe UI, Arial, sans-serif" font-size="18">Auth, Firestore, Storage</text>
  </g>

  <g>
    <circle cx="695" cy="550" r="34" fill="#027DFD"/>
    <text x="695" y="559" text-anchor="middle" fill="white" font-family="Inter, Segoe UI, Arial, sans-serif" font-size="24" font-weight="800">9</text>
    <text x="650" y="630" fill="#0B1220" font-family="Inter, Segoe UI, Arial, sans-serif" font-size="24" font-weight="750">API</text>
    <text x="594" y="662" fill="#64748B" font-family="Inter, Segoe UI, Arial, sans-serif" font-size="18">HTTP, JSON, repository</text>
  </g>

  <g>
    <circle cx="1025" cy="470" r="34" fill="#02569B"/>
    <text x="1025" y="479" text-anchor="middle" fill="white" font-family="Inter, Segoe UI, Arial, sans-serif" font-size="24" font-weight="800">10</text>
    <text x="952" y="552" fill="#0B1220" font-family="Inter, Segoe UI, Arial, sans-serif" font-size="24" font-weight="750">Production</text>
    <text x="912" y="584" fill="#64748B" font-family="Inter, Segoe UI, Arial, sans-serif" font-size="18">Struktur project dan build</text>
  </g>

  <rect x="112" y="676" width="1176" height="42" rx="12" fill="#EDF6FF" stroke="#D9E6F5"/>
  <text x="138" y="703" fill="#02569B" font-family="Inter, Segoe UI, Arial, sans-serif" font-size="18" font-weight="700">Tips:</text>
  <text x="188" y="703" fill="#334155" font-family="Inter, Segoe UI, Arial, sans-serif" font-size="18">Baca konsep, ketik contoh, ubah kode, buat project kecil, catat error, lalu ulangi.</text>

  <defs>
    <pattern id="grid" width="44" height="44" patternUnits="userSpaceOnUse">
      <path d="M44 0H0V44" stroke="#02569B" stroke-opacity="0.05" stroke-width="1"/>
    </pattern>
  </defs>
</svg>
